{
  "extensionsUsed": [
    "KHR_materials_transmission",
    "KHR_materials_clearcoat",
    "KHR_materials_ior",
    "KHR_materials_specular",
    "KHR_materials_emissive_strength",
    "KHR_texture_transform"
  ],
  "accessors": [
    {
      "bufferView": 0,
      "componentType": 5126,
      "count": 834,
      "type": "VEC3",
      "max": [
        0.018335614,
        0.011547311,
        0.018290378
      ],
      "min": [
        -0.02669981,
        -0.00032011868,
        -0.018290386
      ]
    },
    {
      "bufferView": 1,
      "componentType": 5125,
      "count": 3132,
      "type": "SCALAR",
      "max": [
        833.0
      ],
      "min": [
        0.0
      ]
    },
    {
      "bufferView": 2,
      "componentType": 5126,
      "count": 834,
      "type": "VEC3",
      "max": [
        1.0,
        1.0,
        0.9998683
      ],
      "min": [
        -0.9999519,
        -1.0,
        -0.9998683
      ]
    },
    {
      "bufferView": 3,
      "componentType": 5126,
      "count": 834,
      "type": "VEC2",
      "max": [
        0.9843143,
        0.99807894
      ],
      "min": [
        0.15051565,
        0.0522632
      ]
    }
  ],
  "asset": {
    "version": "2.0"
  },
  "buffers": [
    {
      "uri": "data:application/octet-stream;base64,",
      "byteLength": 10008
    },
    {
      "uri": "data:application/octet-stream;base64,",
      "byteLength": 12528
    },
    {
      "uri": "data:application/octet-stream;base64,",
      "byteLength": 10008
    },
    {
      "uri": "data:application/octet-stream;base64,",
      "byteLength": 6672
    }
  ],
  "bufferViews": [
    {
      "buffer": 0,
      "byteLength": 10008,
      "target": 34962
    },
    {
      "buffer": 1,
      "byteLength": 12528,
      "target": 34963
    },
    {
      "buffer": 2,
      "byteLength": 10008,
      "target": 34962
    },
    {
      "buffer": 3,
      "byteLength": 6672,
      "target": 34962
    }
  ],
  "meshes": [
    {
      "primitives": [
        {
          "attributes": {
            "POSITION": 0,
            "NORMAL": 2,
            "TEXCOORD_0": 3
          },
          "indices": 1
        }
      ]
    }
  ],
  "nodes": [
    {
      "mesh": 0,
      "name": "robolow"
    }
  ],
  "samplers": [
    {
      "magFilter": 9729,
      "minFilter": 9729
    }
  ],
  "scene": 0,
  "scenes": [
    {
      "nodes": [
        0
      ],
      "extensions": {}
    }
  ],
  "extensions": {}
}