{
  "extensionsUsed": [
    "KHR_materials_transmission",
    "KHR_materials_clearcoat",
    "KHR_materials_ior",
    "KHR_materials_specular",
    "KHR_materials_emissive_strength",
    "KHR_texture_transform"
  ],
  "accessors": [
    {
      "bufferView": 0,
      "componentType": 5126,
      "count": 535,
      "type": "VEC3",
      "max": [
        0.016797762,
        0.032328833,
        0.010114036
      ],
      "min": [
        -0.019754715,
        0.0,
        -0.01007108
      ]
    },
    {
      "bufferView": 1,
      "componentType": 5125,
      "count": 2154,
      "type": "SCALAR",
      "max": [
        534.0
      ],
      "min": [
        0.0
      ]
    },
    {
      "bufferView": 2,
      "componentType": 5126,
      "count": 535,
      "type": "VEC3",
      "max": [
        1.0,
        0.9991945,
        0.9998476
      ],
      "min": [
        -1.0,
        -1.0,
        -0.9998476
      ]
    },
    {
      "bufferView": 3,
      "componentType": 5126,
      "count": 535,
      "type": "VEC2",
      "max": [
        0.76246756,
        0.97961277
      ],
      "min": [
        0.0045617446,
        0.055651993
      ]
    },
    {
      "bufferView": 4,
      "componentType": 5126,
      "count": 535,
      "type": "VEC3",
      "max": [
        0.016797764,
        0.043876145,
        0.010114032
      ],
      "min": [
        -0.019754713,
        0.011547311,
        -0.010071083
      ]
    },
    {
      "bufferView": 5,
      "componentType": 5125,
      "count": 2154,
      "type": "SCALAR",
      "max": [
        534.0
      ],
      "min": [
        0.0
      ]
    },
    {
      "bufferView": 6,
      "componentType": 5126,
      "count": 535,
      "type": "VEC3",
      "max": [
        1.0,
        0.9991945,
        0.9998476
      ],
      "min": [
        -1.0,
        -1.0,
        -0.9998476
      ]
    },
    {
      "bufferView": 7,
      "componentType": 5126,
      "count": 535,
      "type": "VEC2",
      "max": [
        0.76246756,
        0.97961277
      ],
      "min": [
        0.0045617446,
        0.055651993
      ]
    },
    {
      "bufferView": 8,
      "componentType": 5126,
      "count": 834,
      "type": "VEC3",
      "max": [
        0.11833561,
        0.011547311,
        0.018290378
      ],
      "min": [
        0.07330019,
        -0.00032011868,
        -0.018290386
      ]
    },
    {
      "bufferView": 9,
      "componentType": 5125,
      "count": 3132,
      "type": "SCALAR",
      "max": [
        833.0
      ],
      "min": [
        0.0
      ]
    },
    {
      "bufferView": 10,
      "componentType": 5126,
      "count": 834,
      "type": "VEC3",
      "max": [
        1.0,
        1.0,
        0.9998683
      ],
      "min": [
        -0.9999519,
        -1.0,
        -0.9998683
      ]
    },
    {
      "bufferView": 11,
      "componentType": 5126,
      "count": 834,
      "type": "VEC2",
      "max": [
        0.9843143,
        0.99807894
      ],
      "min": [
        0.15051565,
        0.0522632
      ]
    },
    {
      "bufferView": 12,
      "componentType": 5126,
      "count": 1842,
      "type": "VEC3",
      "max": [
        0.041798692,
        0.08899739,
        0.04706202
      ],
      "min": [
        0.016758906,
        0.024770001,
        -0.009123853
      ]
    },
    {
      "bufferView": 13,
      "componentType": 5125,
      "count": 7140,
      "type": "SCALAR",
      "max": [
        1841.0
      ],
      "min": [
        0.0
      ]
    },
    {
      "bufferView": 14,
      "componentType": 5126,
      "count": 1842,
      "type": "VEC3",
      "max": [
        1.0,
        0.9997353,
        0.9999994
      ],
      "min": [
        -1.0,
        -0.9997839,
        -0.9999994
      ]
    },
    {
      "bufferView": 15,
      "componentType": 5126,
      "count": 1842,
      "type": "VEC2",
      "max": [
        0.99695426,
        0.9983535
      ],
      "min": [
        0.0015796423,
        0.0039708614
      ]
    },
    {
      "bufferView": 16,
      "componentType": 5126,
      "count": 968,
      "type": "VEC3",
      "max": [
        0.02048941,
        0.09738056,
        0.048418555
      ],
      "min": [
        -0.016872624,
        0.07180036,
        0.01969462
      ]
    },
    {
      "bufferView": 17,
      "componentType": 5125,
      "count": 3144,
      "type": "SCALAR",
      "max": [
        967.0
      ],
      "min": [
        0.0
      ]
    },
    {
      "bufferView": 18,
      "componentType": 5126,
      "count": 968,
      "type": "VEC3",
      "max": [
        1.0,
        0.9964432,
        0.9929017
      ],
      "min": [
        -1.0,
        -0.9921173,
        -0.99455076
      ]
    },
    {
      "bufferView": 19,
      "componentType": 5126,
      "count": 968,
      "type": "VEC2",
      "max": [
        0.9215624,
        0.99417543
      ],
      "min": [
        0.0012319684,
        0.06926128
      ]
    },
    {
      "bufferView": 20,
      "componentType": 5126,
      "count": 1232,
      "type": "VEC3",
      "max": [
        0.02997469,
        0.11955494,
        0.027969634
      ],
      "min": [
        -0.009537247,
        0.08182767,
        -0.026348317
      ]
    },
    {
      "bufferView": 21,
      "componentType": 5125,
      "count": 4854,
      "type": "SCALAR",
      "max": [
        1231.0
      ],
      "min": [
        0.0
      ]
    },
    {
      "bufferView": 22,
      "componentType": 5126,
      "count": 1232,
      "type": "VEC3",
      "max": [
        1.0,
        0.99917555,
        0.9999067
      ],
      "min": [
        -1.0,
        -0.99675465,
        -0.9999067
      ]
    },
    {
      "bufferView": 23,
      "componentType": 5126,
      "count": 1232,
      "type": "VEC2",
      "max": [
        0.99414027,
        0.9980873
      ],
      "min": [
        0.0024653673,
        0.018388353
      ]
    },
    {
      "bufferView": 24,
      "componentType": 5126,
      "count": 606,
      "type": "VEC3",
      "max": [
        0.01004456,
        0.121431775,
        -0.044852257
      ],
      "min": [
        -0.0057066204,
        0.10572964,
        -0.046233743
      ]
    },
    {
      "bufferView": 25,
      "componentType": 5125,
      "count": 2520,
      "type": "SCALAR",
      "max": [
        605.0
      ],
      "min": [
        0.0
      ]
    },
    {
      "bufferView": 26,
      "componentType": 5126,
      "count": 606,
      "type": "VEC3",
      "max": [
        1.0,
        0.99997735,
        1.0
      ],
      "min": [
        -1.0,
        -0.99997747,
        -1.0
      ]
    },
    {
      "bufferView": 27,
      "componentType": 5126,
      "count": 606,
      "type": "VEC2",
      "max": [
        0.7519704,
        0.8418666
      ],
      "min": [
        0.070855044,
        0.0025898516
      ]
    },
    {
      "bufferView": 28,
      "componentType": 5126,
      "count": 151,
      "type": "VEC3",
      "max": [
        0.01004456,
        0.121431775,
        -0.033871148
      ],
      "min": [
        -0.0057066204,
        0.105689235,
        -0.044957343
      ]
    },
    {
      "bufferView": 29,
      "componentType": 5125,
      "count": 600,
      "type": "SCALAR",
      "max": [
        150.0
      ],
      "min": [
        0.0
      ]
    },
    {
      "bufferView": 30,
      "componentType": 5126,
      "count": 151,
      "type": "VEC3",
      "max": [
        0.9984006,
        0.9962788,
        1.0
      ],
      "min": [
        -0.99874866,
        -0.9982674,
        -0.9999776
      ]
    },
    {
      "bufferView": 31,
      "componentType": 5126,
      "count": 151,
      "type": "VEC2",
      "max": [
        0.6304331,
        0.91813076
      ],
      "min": [
        0.021267526,
        0.37205625
      ]
    },
    {
      "bufferView": 32,
      "componentType": 5126,
      "count": 753,
      "type": "VEC3",
      "max": [
        0.014123069,
        0.12050209,
        -0.013216198
      ],
      "min": [
        -0.011826054,
        0.10625924,
        -0.033871204
      ]
    },
    {
      "bufferView": 33,
      "componentType": 5125,
      "count": 3012,
      "type": "SCALAR",
      "max": [
        752.0
      ],
      "min": [
        0.0
      ]
    },
    {
      "bufferView": 34,
      "componentType": 5126,
      "count": 753,
      "type": "VEC3",
      "max": [
        1.0,
        0.99984765,
        0.99982005
      ],
      "min": [
        -1.0,
        -0.9999395,
        -1.0
      ]
    },
    {
      "bufferView": 35,
      "componentType": 5126,
      "count": 753,
      "type": "VEC2",
      "max": [
        0.7895576,
        0.9979592
      ],
      "min": [
        0.0027352795,
        0.06482476
      ]
    }
  ],
  "asset": {
    "version": "2.0"
  },
  "buffers": [
    {
      "uri": "data:application/octet-stream;base64,",
      "byteLength": 6420
    },
    {
      "uri": "data:application/octet-stream;base64,",
      "byteLength": 8616
    },
    {
      "uri": "data:application/octet-stream;base64,",
      "byteLength": 6420
    },
    {
      "uri": "data:application/octet-stream;base64,",
      "byteLength": 4280
    },
    {
      "uri": "data:application/octet-stream;base64,",
      "byteLength": 6420
    },
    {
      "uri": "data:application/octet-stream;base64,",
      "byteLength": 8616
    },
    {
      "uri": "data:application/octet-stream;base64,",
      "byteLength": 6420
    },
    {
      "uri": "data:application/octet-stream;base64,",
      "byteLength": 4280
    },
    {
      "uri": "data:application/octet-stream;base64,",
      "byteLength": 10008
    },
    {
      "uri": "data:application/octet-stream;base64,",
      "byteLength": 12528
    },
    {
      "uri": "data:application/octet-stream;base64,",
      "byteLength": 10008
    },
    {
      "uri": "data:application/octet-stream;base64,",
      "byteLength": 6672
    },
    {
      "uri": "data:application/octet-stream;base64,",
      "byteLength": 22104
    },
    {
      "uri": "data:application/octet-stream;base64,",
      "byteLength": 28560
    },
    {
      "uri": "data:application/octet-stream;base64,",
      "byteLength": 22104
    },
    {
      "uri": "data:application/octet-stream;base64,",
      "byteLength": 14736
    },
    {
      "uri": "data:application/octet-stream;base64,",
      "byteLength": 11616
    },
    {
      "uri": "data:application/octet-stream;base64,",
      "byteLength": 12576
    },
    {
      "uri": "data:application/octet-stream;base64,",
      "byteLength": 11616
    },
    {
      "uri": "data:application/octet-stream;base64,",
      "byteLength": 7744
    },
    {
      "uri": "data:application/octet-stream;base64,",
      "byteLength": 14784
    },
    {
      "uri": "data:application/octet-stream;base64,",
      "byteLength": 19416
    },
    {
      "uri": "data:application/octet-stream;base64,",
      "byteLength": 14784
    },
    {
      "uri": "data:application/octet-stream;base64,",
      "byteLength": 9856
    },
    {
      "uri": "data:application/octet-stream;base64,",
      "byteLength": 7272
    },
    {
      "uri": "data:application/octet-stream;base64,",
      "byteLength": 10080
    },
    {
      "uri": "data:application/octet-stream;base64,",
      "byteLength": 7272
    },
    {
      "uri": "data:application/octet-stream;base64,",
      "byteLength": 4848
    },
    {
      "uri": "data:application/octet-stream;base64,",
      "byteLength": 1812
    },
    {
      "uri": "data:application/octet-stream;base64,",
      "byteLength": 2400
    },
    {
      "uri": "data:application/octet-stream;base64,",
      "byteLength": 1812
    },
    {
      "uri": "data:application/octet-stream;base64,",
      "byteLength": 1208
    },
    {
      "uri": "data:application/octet-stream;base64,",
      "byteLength": 9036
    },
    {
      "uri": "data:application/octet-stream;base64,",
      "byteLength": 12048
    },
    {
      "uri": "data:application/octet-stream;base64,",
      "byteLength": 9036
    },
    {
      "uri": "data:application/octet-stream;base64,",
      "byteLength": 6024
    }
  ],
  "bufferViews": [
    {
      "buffer": 0,
      "byteLength": 6420,
      "target": 34962
    },
    {
      "buffer": 1,
      "byteLength": 8616,
      "target": 34963
    },
    {
      "buffer": 2,
      "byteLength": 6420,
      "target": 34962
    },
    {
      "buffer": 3,
      "byteLength": 4280,
      "target": 34962
    },
    {
      "buffer": 4,
      "byteLength": 6420,
      "target": 34962
    },
    {
      "buffer": 5,
      "byteLength": 8616,
      "target": 34963
    },
    {
      "buffer": 6,
      "byteLength": 6420,
      "target": 34962
    },
    {
      "buffer": 7,
      "byteLength": 4280,
      "target": 34962
    },
    {
      "buffer": 8,
      "byteLength": 10008,
      "target": 34962
    },
    {
      "buffer": 9,
      "byteLength": 12528,
      "target": 34963
    },
    {
      "buffer": 10,
      "byteLength": 10008,
      "target": 34962
    },
    {
      "buffer": 11,
      "byteLength": 6672,
      "target": 34962
    },
    {
      "buffer": 12,
      "byteLength": 22104,
      "target": 34962
    },
    {
      "buffer": 13,
      "byteLength": 28560,
      "target": 34963
    },
    {
      "buffer": 14,
      "byteLength": 22104,
      "target": 34962
    },
    {
      "buffer": 15,
      "byteLength": 14736,
      "target": 34962
    },
    {
      "buffer": 16,
      "byteLength": 11616,
      "target": 34962
    },
    {
      "buffer": 17,
      "byteLength": 12576,
      "target": 34963
    },
    {
      "buffer": 18,
      "byteLength": 11616,
      "target": 34962
    },
    {
      "buffer": 19,
      "byteLength": 7744,
      "target": 34962
    },
    {
      "buffer": 20,
      "byteLength": 14784,
      "target": 34962
    },
    {
      "buffer": 21,
      "byteLength": 19416,
      "target": 34963
    },
    {
      "buffer": 22,
      "byteLength": 14784,
      "target": 34962
    },
    {
      "buffer": 23,
      "byteLength": 9856,
      "target": 34962
    },
    {
      "buffer": 24,
      "byteLength": 7272,
      "target": 34962
    },
    {
      "buffer": 25,
      "byteLength": 10080,
      "target": 34963
    },
    {
      "buffer": 26,
      "byteLength": 7272,
      "target": 34962
    },
    {
      "buffer": 27,
      "byteLength": 4848,
      "target": 34962
    },
    {
      "buffer": 28,
      "byteLength": 1812,
      "target": 34962
    },
    {
      "buffer": 29,
      "byteLength": 2400,
      "target": 34963
    },
    {
      "buffer": 30,
      "byteLength": 1812,
      "target": 34962
    },
    {
      "buffer": 31,
      "byteLength": 1208,
      "target": 34962
    },
    {
      "buffer": 32,
      "byteLength": 9036,
      "target": 34962
    },
    {
      "buffer": 33,
      "byteLength": 12048,
      "target": 34963
    },
    {
      "buffer": 34,
      "byteLength": 9036,
      "target": 34962
    },
    {
      "buffer": 35,
      "byteLength": 6024,
      "target": 34962
    }
  ],
  "meshes": [
    {
      "primitives": [
        {
          "attributes": {
            "POSITION": 0,
            "NORMAL": 2,
            "TEXCOORD_0": 3
          },
          "indices": 1
        }
      ]
    },
    {
      "primitives": [
        {
          "attributes": {
            "POSITION": 4,
            "NORMAL": 6,
            "TEXCOORD_0": 7
          },
          "indices": 5
        }
      ]
    },
    {
      "primitives": [
        {
          "attributes": {
            "POSITION": 8,
            "NORMAL": 10,
            "TEXCOORD_0": 11
          },
          "indices": 9
        }
      ]
    },
    {
      "primitives": [
        {
          "attributes": {
            "POSITION": 12,
            "NORMAL": 14,
            "TEXCOORD_0": 15
          },
          "indices": 13
        }
      ]
    },
    {
      "primitives": [
        {
          "attributes": {
            "POSITION": 16,
            "NORMAL": 18,
            "TEXCOORD_0": 19
          },
          "indices": 17
        }
      ]
    },
    {
      "primitives": [
        {
          "attributes": {
            "POSITION": 20,
            "NORMAL": 22,
            "TEXCOORD_0": 23
          },
          "indices": 21
        }
      ]
    },
    {
      "primitives": [
        {
          "attributes": {
            "POSITION": 24,
            "NORMAL": 26,
            "TEXCOORD_0": 27
          },
          "indices": 25
        }
      ]
    },
    {
      "primitives": [
        {
          "attributes": {
            "POSITION": 28,
            "NORMAL": 30,
            "TEXCOORD_0": 31
          },
          "indices": 29
        }
      ]
    },
    {
      "primitives": [
        {
          "attributes": {
            "POSITION": 32,
            "NORMAL": 34,
            "TEXCOORD_0": 35
          },
          "indices": 33
        }
      ]
    }
  ],
  "nodes": [
    {
      "mesh": 0,
      "name": "robolow"
    },
    {
      "mesh": 1,
      "name": "robolow"
    },
    {
      "mesh": 2,
      "name": "robolow"
    },
    {
      "mesh": 3,
      "name": "robolow"
    },
    {
      "mesh": 4,
      "name": "robolow"
    },
    {
      "mesh": 5,
      "name": "robolow"
    },
    {
      "mesh": 6,
      "name": "robolow"
    },
    {
      "mesh": 7,
      "name": "robolow"
    },
    {
      "mesh": 8,
      "name": "robolow"
    }
  ],
  "samplers": [
    {
      "magFilter": 9729,
      "minFilter": 9729
    }
  ],
  "scene": 0,
  "scenes": [
    {
      "nodes": [
        0,
        1,
        2,
        3,
        4,
        5,
        6,
        7,
        8
      ],
      "extensions": {}
    }
  ],
  "extensions": {}
}