{
  "extensionsUsed": [
    "KHR_materials_transmission",
    "KHR_materials_clearcoat",
    "KHR_materials_ior",
    "KHR_materials_specular",
    "KHR_materials_emissive_strength",
    "KHR_texture_transform"
  ],
  "accessors": [
    {
      "bufferView": 0,
      "componentType": 5126,
      "count": 1842,
      "type": "VEC3",
      "max": [
        0.025008062,
        0.069315836,
        0.00964914
      ],
      "min": [
        -3.1724572E-05,
        -0.009297404,
        -0.009025358
      ]
    },
    {
      "bufferView": 1,
      "componentType": 5125,
      "count": 7140,
      "type": "SCALAR",
      "max": [
        1841.0
      ],
      "min": [
        0.0
      ]
    },
    {
      "bufferView": 2,
      "componentType": 5126,
      "count": 1842,
      "type": "VEC3",
      "max": [
        1.0,
        0.99906605,
        0.999088
      ],
      "min": [
        -1.0,
        -0.9990655,
        -0.9990874
      ]
    },
    {
      "bufferView": 3,
      "componentType": 5126,
      "count": 1842,
      "type": "VEC2",
      "max": [
        0.99695426,
        0.9983535
      ],
      "min": [
        0.0015796423,
        0.0039708614
      ]
    }
  ],
  "asset": {
    "version": "2.0"
  },
  "buffers": [
    {
      "uri": "data:application/octet-stream;base64,",
      "byteLength": 22104
    },
    {
      "uri": "data:application/octet-stream;base64,",
      "byteLength": 28560
    },
    {
      "uri": "data:application/octet-stream;base64,",
      "byteLength": 22104
    },
    {
      "uri": "data:application/octet-stream;base64,",
      "byteLength": 14736
    }
  ],
  "bufferViews": [
    {
      "buffer": 0,
      "byteLength": 22104,
      "target": 34962
    },
    {
      "buffer": 1,
      "byteLength": 28560,
      "target": 34963
    },
    {
      "buffer": 2,
      "byteLength": 22104,
      "target": 34962
    },
    {
      "buffer": 3,
      "byteLength": 14736,
      "target": 34962
    }
  ],
  "meshes": [
    {
      "primitives": [
        {
          "attributes": {
            "POSITION": 0,
            "NORMAL": 2,
            "TEXCOORD_0": 3
          },
          "indices": 1
        }
      ]
    }
  ],
  "nodes": [
    {
      "mesh": 0,
      "name": "robolow"
    }
  ],
  "samplers": [
    {
      "magFilter": 9729,
      "minFilter": 9729
    }
  ],
  "scene": 0,
  "scenes": [
    {
      "nodes": [
        0
      ],
      "extensions": {}
    }
  ],
  "extensions": {}
}