{
  "extensionsUsed": [
    "KHR_materials_transmission",
    "KHR_materials_clearcoat",
    "KHR_materials_ior",
    "KHR_materials_specular",
    "KHR_materials_emissive_strength",
    "KHR_texture_transform"
  ],
  "accessors": [
    {
      "bufferView": 0,
      "componentType": 5126,
      "count": 757,
      "type": "VEC3",
      "max": [
        0.007948241,
        0.0123625705,
        0.008051101
      ],
      "min": [
        -0.007802939,
        -3.1014423E-08,
        -0.0076914374
      ]
    },
    {
      "bufferView": 1,
      "componentType": 5125,
      "count": 3120,
      "type": "SCALAR",
      "max": [
        756.0
      ],
      "min": [
        0.0
      ]
    },
    {
      "bufferView": 2,
      "componentType": 5126,
      "count": 757,
      "type": "VEC3",
      "max": [
        1.0,
        1.0,
        0.99997735
      ],
      "min": [
        -1.0,
        -1.0,
        -0.99997747
      ]
    },
    {
      "bufferView": 3,
      "componentType": 5126,
      "count": 757,
      "type": "VEC2",
      "max": [
        0.7519704,
        0.91813076
      ],
      "min": [
        0.021267526,
        0.0025898516
      ]
    },
    {
      "bufferView": 4,
      "componentType": 5126,
      "count": 753,
      "type": "VEC3",
      "max": [
        0.1,
        0.013729591,
        0.0071214247
      ],
      "min": [
        0.07405087,
        -0.006925415,
        -0.0071214247
      ]
    },
    {
      "bufferView": 5,
      "componentType": 5125,
      "count": 3012,
      "type": "SCALAR",
      "max": [
        752.0
      ],
      "min": [
        0.0
      ]
    },
    {
      "bufferView": 6,
      "componentType": 5126,
      "count": 753,
      "type": "VEC3",
      "max": [
        1.0,
        1.0,
        0.99984765
      ],
      "min": [
        -1.0,
        -0.99982005,
        -0.9999395
      ]
    },
    {
      "bufferView": 7,
      "componentType": 5126,
      "count": 753,
      "type": "VEC2",
      "max": [
        0.7895576,
        0.9979592
      ],
      "min": [
        0.0027352795,
        0.06482476
      ]
    },
    {
      "bufferView": 8,
      "componentType": 5126,
      "count": 1232,
      "type": "VEC3",
      "max": [
        0.12894271,
        0.05612834,
        0.008842877
      ],
      "min": [
        0.08943079,
        -5.912029E-05,
        -0.008823161
      ]
    },
    {
      "bufferView": 9,
      "componentType": 5125,
      "count": 4854,
      "type": "SCALAR",
      "max": [
        1231.0
      ],
      "min": [
        0.0
      ]
    },
    {
      "bufferView": 10,
      "componentType": 5126,
      "count": 1232,
      "type": "VEC3",
      "max": [
        1.0,
        0.99576706,
        0.9998195
      ],
      "min": [
        -1.0,
        -0.99997747,
        -0.999081
      ]
    },
    {
      "bufferView": 11,
      "componentType": 5126,
      "count": 1232,
      "type": "VEC2",
      "max": [
        0.99414027,
        0.9980873
      ],
      "min": [
        0.0024653673,
        0.018388353
      ]
    },
    {
      "bufferView": 12,
      "componentType": 5126,
      "count": 968,
      "type": "VEC3",
      "max": [
        0.1,
        0.017656721,
        0.009158387
      ],
      "min": [
        0.06263796,
        -0.008906287,
        -0.009158352
      ]
    },
    {
      "bufferView": 13,
      "componentType": 5125,
      "count": 3144,
      "type": "SCALAR",
      "max": [
        967.0
      ],
      "min": [
        0.0
      ]
    },
    {
      "bufferView": 14,
      "componentType": 5126,
      "count": 968,
      "type": "VEC3",
      "max": [
        1.0,
        1.0,
        0.99988985
      ],
      "min": [
        -1.0,
        -0.99987054,
        -0.99988973
      ]
    },
    {
      "bufferView": 15,
      "componentType": 5126,
      "count": 968,
      "type": "VEC2",
      "max": [
        0.9215624,
        0.99417543
      ],
      "min": [
        0.0012319684,
        0.06926128
      ]
    },
    {
      "bufferView": 16,
      "componentType": 5126,
      "count": 1842,
      "type": "VEC3",
      "max": [
        0.12500806,
        0.069315836,
        0.00964914
      ],
      "min": [
        0.09996828,
        -0.009297404,
        -0.009025358
      ]
    },
    {
      "bufferView": 17,
      "componentType": 5125,
      "count": 7140,
      "type": "SCALAR",
      "max": [
        1841.0
      ],
      "min": [
        0.0
      ]
    },
    {
      "bufferView": 18,
      "componentType": 5126,
      "count": 1842,
      "type": "VEC3",
      "max": [
        1.0,
        0.99906605,
        0.999088
      ],
      "min": [
        -1.0,
        -0.9990655,
        -0.9990874
      ]
    },
    {
      "bufferView": 19,
      "componentType": 5126,
      "count": 1842,
      "type": "VEC2",
      "max": [
        0.99695426,
        0.9983535
      ],
      "min": [
        0.0015796423,
        0.0039708614
      ]
    },
    {
      "bufferView": 20,
      "componentType": 5126,
      "count": 535,
      "type": "VEC3",
      "max": [
        0.11679776,
        0.032328833,
        0.010114036
      ],
      "min": [
        0.080245286,
        0.0,
        -0.01007108
      ]
    },
    {
      "bufferView": 21,
      "componentType": 5125,
      "count": 2154,
      "type": "SCALAR",
      "max": [
        534.0
      ],
      "min": [
        0.0
      ]
    },
    {
      "bufferView": 22,
      "componentType": 5126,
      "count": 535,
      "type": "VEC3",
      "max": [
        1.0,
        0.9991945,
        0.9998476
      ],
      "min": [
        -1.0,
        -1.0,
        -0.9998476
      ]
    },
    {
      "bufferView": 23,
      "componentType": 5126,
      "count": 535,
      "type": "VEC2",
      "max": [
        0.76246756,
        0.97961277
      ],
      "min": [
        0.0045617446,
        0.055651993
      ]
    },
    {
      "bufferView": 24,
      "componentType": 5126,
      "count": 834,
      "type": "VEC3",
      "max": [
        0.11833561,
        0.011547311,
        0.018290378
      ],
      "min": [
        0.07330019,
        -0.00032011868,
        -0.018290386
      ]
    },
    {
      "bufferView": 25,
      "componentType": 5125,
      "count": 3132,
      "type": "SCALAR",
      "max": [
        833.0
      ],
      "min": [
        0.0
      ]
    },
    {
      "bufferView": 26,
      "componentType": 5126,
      "count": 834,
      "type": "VEC3",
      "max": [
        1.0,
        1.0,
        0.9998683
      ],
      "min": [
        -0.9999519,
        -1.0,
        -0.9998683
      ]
    },
    {
      "bufferView": 27,
      "componentType": 5126,
      "count": 834,
      "type": "VEC2",
      "max": [
        0.9843143,
        0.99807894
      ],
      "min": [
        0.15051565,
        0.0522632
      ]
    }
  ],
  "asset": {
    "version": "2.0"
  },
  "buffers": [
    {
      "uri": "data:application/octet-stream;base64,",
      "byteLength": 9084
    },
    {
      "uri": "data:application/octet-stream;base64,",
      "byteLength": 12480
    },
    {
      "uri": "data:application/octet-stream;base64,",
      "byteLength": 9084
    },
    {
      "uri": "data:application/octet-stream;base64,",
      "byteLength": 6056
    },
    {
      "uri": "data:application/octet-stream;base64,",
      "byteLength": 9036
    },
    {
      "uri": "data:application/octet-stream;base64,",
      "byteLength": 12048
    },
    {
      "uri": "data:application/octet-stream;base64,",
      "byteLength": 9036
    },
    {
      "uri": "data:application/octet-stream;base64,",
      "byteLength": 6024
    },
    {
      "uri": "data:application/octet-stream;base64,",
      "byteLength": 14784
    },
    {
      "uri": "data:application/octet-stream;base64,",
      "byteLength": 19416
    },
    {
      "uri": "data:application/octet-stream;base64,",
      "byteLength": 14784
    },
    {
      "uri": "data:application/octet-stream;base64,",
      "byteLength": 9856
    },
    {
      "uri": "data:application/octet-stream;base64,",
      "byteLength": 11616
    },
    {
      "uri": "data:application/octet-stream;base64,",
      "byteLength": 12576
    },
    {
      "uri": "data:application/octet-stream;base64,",
      "byteLength": 11616
    },
    {
      "uri": "data:application/octet-stream;base64,",
      "byteLength": 7744
    },
    {
      "uri": "data:application/octet-stream;base64,",
      "byteLength": 22104
    },
    {
      "uri": "data:application/octet-stream;base64,",
      "byteLength": 28560
    },
    {
      "uri": "data:application/octet-stream;base64,",
      "byteLength": 22104
    },
    {
      "uri": "data:application/octet-stream;base64,",
      "byteLength": 14736
    },
    {
      "uri": "data:application/octet-stream;base64,",
      "byteLength": 6420
    },
    {
      "uri": "data:application/octet-stream;base64,",
      "byteLength": 8616
    },
    {
      "uri": "data:application/octet-stream;base64,",
      "byteLength": 6420
    },
    {
      "uri": "data:application/octet-stream;base64,",
      "byteLength": 4280
    },
    {
      "uri": "data:application/octet-stream;base64,",
      "byteLength": 10008
    },
    {
      "uri": "data:application/octet-stream;base64,",
      "byteLength": 12528
    },
    {
      "uri": "data:application/octet-stream;base64,",
      "byteLength": 10008
    },
    {
      "uri": "data:application/octet-stream;base64,",
      "byteLength": 6672
    }
  ],
  "bufferViews": [
    {
      "buffer": 0,
      "byteLength": 9084,
      "target": 34962
    },
    {
      "buffer": 1,
      "byteLength": 12480,
      "target": 34963
    },
    {
      "buffer": 2,
      "byteLength": 9084,
      "target": 34962
    },
    {
      "buffer": 3,
      "byteLength": 6056,
      "target": 34962
    },
    {
      "buffer": 4,
      "byteLength": 9036,
      "target": 34962
    },
    {
      "buffer": 5,
      "byteLength": 12048,
      "target": 34963
    },
    {
      "buffer": 6,
      "byteLength": 9036,
      "target": 34962
    },
    {
      "buffer": 7,
      "byteLength": 6024,
      "target": 34962
    },
    {
      "buffer": 8,
      "byteLength": 14784,
      "target": 34962
    },
    {
      "buffer": 9,
      "byteLength": 19416,
      "target": 34963
    },
    {
      "buffer": 10,
      "byteLength": 14784,
      "target": 34962
    },
    {
      "buffer": 11,
      "byteLength": 9856,
      "target": 34962
    },
    {
      "buffer": 12,
      "byteLength": 11616,
      "target": 34962
    },
    {
      "buffer": 13,
      "byteLength": 12576,
      "target": 34963
    },
    {
      "buffer": 14,
      "byteLength": 11616,
      "target": 34962
    },
    {
      "buffer": 15,
      "byteLength": 7744,
      "target": 34962
    },
    {
      "buffer": 16,
      "byteLength": 22104,
      "target": 34962
    },
    {
      "buffer": 17,
      "byteLength": 28560,
      "target": 34963
    },
    {
      "buffer": 18,
      "byteLength": 22104,
      "target": 34962
    },
    {
      "buffer": 19,
      "byteLength": 14736,
      "target": 34962
    },
    {
      "buffer": 20,
      "byteLength": 6420,
      "target": 34962
    },
    {
      "buffer": 21,
      "byteLength": 8616,
      "target": 34963
    },
    {
      "buffer": 22,
      "byteLength": 6420,
      "target": 34962
    },
    {
      "buffer": 23,
      "byteLength": 4280,
      "target": 34962
    },
    {
      "buffer": 24,
      "byteLength": 10008,
      "target": 34962
    },
    {
      "buffer": 25,
      "byteLength": 12528,
      "target": 34963
    },
    {
      "buffer": 26,
      "byteLength": 10008,
      "target": 34962
    },
    {
      "buffer": 27,
      "byteLength": 6672,
      "target": 34962
    }
  ],
  "meshes": [
    {
      "primitives": [
        {
          "attributes": {
            "POSITION": 0,
            "NORMAL": 2,
            "TEXCOORD_0": 3
          },
          "indices": 1
        }
      ]
    },
    {
      "primitives": [
        {
          "attributes": {
            "POSITION": 4,
            "NORMAL": 6,
            "TEXCOORD_0": 7
          },
          "indices": 5
        }
      ]
    },
    {
      "primitives": [
        {
          "attributes": {
            "POSITION": 8,
            "NORMAL": 10,
            "TEXCOORD_0": 11
          },
          "indices": 9
        }
      ]
    },
    {
      "primitives": [
        {
          "attributes": {
            "POSITION": 12,
            "NORMAL": 14,
            "TEXCOORD_0": 15
          },
          "indices": 13
        }
      ]
    },
    {
      "primitives": [
        {
          "attributes": {
            "POSITION": 16,
            "NORMAL": 18,
            "TEXCOORD_0": 19
          },
          "indices": 17
        }
      ]
    },
    {
      "primitives": [
        {
          "attributes": {
            "POSITION": 20,
            "NORMAL": 22,
            "TEXCOORD_0": 23
          },
          "indices": 21
        }
      ]
    },
    {
      "primitives": [
        {
          "attributes": {
            "POSITION": 24,
            "NORMAL": 26,
            "TEXCOORD_0": 27
          },
          "indices": 25
        }
      ]
    }
  ],
  "nodes": [
    {
      "mesh": 0,
      "name": "robolow"
    },
    {
      "mesh": 1,
      "name": "robolow"
    },
    {
      "mesh": 2,
      "name": "robolow"
    },
    {
      "mesh": 3,
      "name": "robolow"
    },
    {
      "mesh": 4,
      "name": "robolow"
    },
    {
      "mesh": 5,
      "name": "robolow"
    },
    {
      "mesh": 6,
      "name": "robolow"
    }
  ],
  "samplers": [
    {
      "magFilter": 9729,
      "minFilter": 9729
    }
  ],
  "scene": 0,
  "scenes": [
    {
      "nodes": [
        0,
        1,
        2,
        3,
        4,
        5,
        6
      ],
      "extensions": {}
    }
  ],
  "extensions": {}
}